<svg xmlns="http://www.w3.org/2000/svg" width="315" height="270" viewBox="0 0 315 270"><defs><clipPath id="w635a"><path fill="#fff" d="M155-7s61 9 112 43c46.898 31.265 61.379 52.852 59 88-3.154 46.6-91.239 65.025-181 15-107.634-59.988-175.361-7.21-170 15 7 29 15 54.823 90 66 74.87 11.156 83 71 83 71"/></clipPath></defs><g><g opacity=".72"><path fill="none" stroke="#d695b3" stroke-dasharray="4 2" stroke-miterlimit="20" stroke-width="2" d="M155-7v0s61 9 112 43c46.898 31.265 61.379 52.852 59 88-3.154 46.6-91.239 65.025-181 15-107.634-59.988-175.361-7.21-170 15 7 29 15 54.823 90 66 74.87 11.156 83 71 83 71v0" clip-path="url(&quot;#w635a&quot;)"/></g><g><path fill="#d695b3" d="M305 73.25L315 77l-3.75-10s.625 3.541-1.25 5c-1.875 1.458-5 1.25-5 1.25z"/></g><g><path fill="#d695b3" d="M7.594 113.913L.28 121.696l10.673.393s-3.509-.788-4.132-3.08c-.623-2.292.773-5.096.773-5.096z"/></g><g><path fill="#d695b3" d="M132.197 264.249l9.247 5.343-2.055-10.48s.035 3.596-2.055 4.726c-2.089 1.13-5.137.41-5.137.41z"/></g></g></svg>