<svg xmlns="http://www.w3.org/2000/svg" width="661" height="219" viewBox="0 0 661 219"><defs><linearGradient id="a667a" x1="0" x2="2436" y1="301" y2="300" gradientUnits="userSpaceOnUse"><stop offset="0" stop-color="#a044ff"/><stop offset="1" stop-color="#6a3093"/></linearGradient><linearGradient id="a667b" x1="156" x2="2281" y1="300.13" y2="300.87" gradientUnits="userSpaceOnUse"><stop offset="0" stop-color="#a044ff"/><stop offset="1" stop-color="#6a3093"/></linearGradient></defs><g><g clip-path="url(#clip-773)" opacity=".28"><path fill="url(#a667a)" d="M0 512.75V216.295S157.244-5 595.08-5c436.85 0 690.077 254.699 1020.464 254.699 286.647 0 459.782-166.18 650.116-215.73 190.334-49.548 169.695 36.188 169.695 36.188l-30.958 535.842z"/></g><g clip-path="url(#clip-773)" opacity=".28"><path fill="url(#a667b)" d="M156 485.743V227.009S293.141 33.87 675 33.87c381 0 601.852 222.293 890 222.293 250 0 401-145.036 567-188.28s148 31.583 148 31.583l-27 467.664z"/></g></g></svg>