<svg xmlns="http://www.w3.org/2000/svg" width="16" height="16" viewBox="0 0 1000 1000"><path fill="#7f38bd" d="M465.72 11.99c-72.79 8.24-138.88 39.08-190.79 88.5-52.3 50-84.29 109-97.7 180.45-5.56 29.12-4.98 92.14.96 119.73 8.43 39.65 15.33 55.74 70.11 164.74C420.51 907.73 449.43 963.85 457.1 971.9c23.37 24.14 62.83 24.14 86.01 0 7.47-7.66 39.46-69.73 214.74-417.98 48.85-96.93 55.94-113.98 64.36-153.25 3.83-17.24 4.41-26.05 4.41-61.3.19-46.74-2.87-67.62-15.52-105.17C762.83 89.19 616.09-5.06 465.72 11.99zm82.37 177.77c23.56 8.05 40.99 18.39 58.81 35.44 21.26 20.11 34.48 40.8 42.53 66.85 25.86 84.1-22.8 172.6-108.42 197.12-21.46 6.13-60.15 6.13-81.6 0-57.09-16.28-100.19-62.45-112.64-120.11-3.83-17.62-2.87-50.76 1.92-68.96 15.52-58.43 60.15-101.34 119.92-115.13 7.66-1.72 19.92-2.49 36.4-1.92 22.01.58 26.99 1.34 43.08 6.71z"/></svg>