<svg xmlns="http://www.w3.org/2000/svg" width="19" height="31" viewBox="0 0 19 31"><defs><clipPath id="zczda"><path fill="#fff" d="M9.5 0A9.5 9.5 0 0 1 19 9.5v12A9.5 9.5 0 0 1 9.5 31 9.5 9.5 0 0 1 0 21.5v-12A9.5 9.5 0 0 1 9.5 0z"/></clipPath><clipPath id="zczdb"><path fill="#fff" d="M9.5 7a.5.5 0 0 1 .5.5v4a.5.5 0 1 1-1 0v-4a.5.5 0 0 1 .5-.5z"/></clipPath></defs><g><g><g><path fill="none" stroke="#fff" stroke-miterlimit="20" stroke-width="4" d="M9.5 0A9.5 9.5 0 0 1 19 9.5v12A9.5 9.5 0 0 1 9.5 31 9.5 9.5 0 0 1 0 21.5v-12A9.5 9.5 0 0 1 9.5 0z" clip-path="url(&quot;#zczda&quot;)"/></g><g><path fill="none" stroke="#fff" stroke-miterlimit="20" stroke-width="4" d="M9.5 7a.5.5 0 0 1 .5.5v4a.5.5 0 1 1-1 0v-4a.5.5 0 0 1 .5-.5z" clip-path="url(&quot;#zczdb&quot;)"/></g></g></g></svg>