<svg xmlns="http://www.w3.org/2000/svg" width="241" height="219" viewBox="0 0 241 219"><defs><clipPath id="cs7za"><path fill="#fff" d="M120 51c30.928 0 56 25.072 56 56s-25.072 56-56 56-56-25.072-56-56 25.072-56 56-56z"/></clipPath><clipPath id="cs7zb"><path fill="#fff" d="M155.5 62a2.5 2.5 0 1 1 0 5 2.5 2.5 0 0 1 0-5z"/></clipPath><clipPath id="cs7zc"><path fill="#fff" d="M120 30c42.526 0 77 34.474 77 77s-34.474 77-77 77-77-34.474-77-77 34.474-77 77-77z"/></clipPath><clipPath id="cs7zd"><path fill="#fff" d="M83.5 171a2.5 2.5 0 1 1 0 5 2.5 2.5 0 0 1 0-5z"/></clipPath><clipPath id="cs7ze"><path fill="#fff" d="M120.5-13C187.05-13 241 40.95 241 107.5S187.05 228 120.5 228 0 174.05 0 107.5 53.95-13 120.5-13z"/></clipPath><clipPath id="cs7zf"><path fill="#fff" d="M19.5 40a2.5 2.5 0 1 1 0 5 2.5 2.5 0 0 1 0-5z"/></clipPath></defs><g><g><g><g><text dominant-baseline="text-before-edge" style="line-height:24px" fill="#fff" font-family="'MullerBold','MullerBold'" font-size="100" font-style="none" font-weight="400" transform="translate(104 80)"><tspan style="font-kerning:normal">?</tspan></text></g></g><g><path fill="none" stroke="#fff" stroke-miterlimit="20" stroke-width="2" d="M120 51c30.928 0 56 25.072 56 56s-25.072 56-56 56-56-25.072-56-56 25.072-56 56-56z" clip-path="url(&quot;#cs7za&quot;)"/></g><g><path fill="none" stroke="#fff" stroke-miterlimit="20" stroke-width="2" d="M155.5 62a2.5 2.5 0 1 1 0 5 2.5 2.5 0 0 1 0-5z" clip-path="url(&quot;#cs7zb&quot;)"/></g><g><path fill="none" stroke="#fff" stroke-miterlimit="20" stroke-width="2" d="M120 30c42.526 0 77 34.474 77 77s-34.474 77-77 77-77-34.474-77-77 34.474-77 77-77z" clip-path="url(&quot;#cs7zc&quot;)"/></g><g><path fill="none" stroke="#fff" stroke-miterlimit="20" stroke-width="2" d="M83.5 171a2.5 2.5 0 1 1 0 5 2.5 2.5 0 0 1 0-5z" clip-path="url(&quot;#cs7zd&quot;)"/></g><g><path fill="none" stroke="#fff" stroke-miterlimit="20" stroke-width="2" d="M120.5-13C187.05-13 241 40.95 241 107.5S187.05 228 120.5 228 0 174.05 0 107.5 53.95-13 120.5-13z" clip-path="url(&quot;#cs7ze&quot;)"/></g><g><path fill="none" stroke="#fff" stroke-miterlimit="20" stroke-width="2" d="M19.5 40a2.5 2.5 0 1 1 0 5 2.5 2.5 0 0 1 0-5z" clip-path="url(&quot;#cs7zf&quot;)"/></g></g></g></svg>